<svg xmlns="http://www.w3.org/2000/svg" width="72" height="72" viewBox="0 0 72 72" version="1.1"><path d="" stroke="none" fill="#484444" fill-rule="evenodd"/><path d="M 22 36 L 22 54 26 54 L 30 54 30 47 L 30 40 36.050 40 C 42.558 40, 47.294 38.188, 48.970 35.055 C 49.537 33.997, 50 31.042, 50 28.489 C 50 24.691, 49.468 23.314, 47.077 20.923 C 44.198 18.044, 43.987 18, 33.077 18 L 22 18 22 36 M 30 29.127 L 30 34.254 35.107 33.764 C 40.442 33.251, 41.959 32.030, 41.985 28.225 C 42.002 25.597, 38.771 24, 33.435 24 L 30 24 30 29.127" stroke="none" fill="#444444" fill-rule="evenodd"/></svg>