<svg version="1.1" id="Layer_1" xmlns="http://www.w3.org/2000/svg" xmlns:xlink="http://www.w3.org/1999/xlink" x="0px" y="0px"
	 width="100%" viewBox="0 0 72 72" enable-background="new 0 0 72 72" xml:space="preserve">
<path fill="#FFFFFF" opacity="1.000000" stroke="none" 
	d="
M37.000000,73.000000 
	C24.666666,73.000000 12.833333,73.000000 1.000000,73.000000 
	C1.000000,49.000000 1.000000,25.000000 1.000000,1.000000 
	C25.000000,1.000000 49.000000,1.000000 73.000000,1.000000 
	C73.000000,25.000000 73.000000,49.000000 73.000000,73.000000 
	C61.166668,73.000000 49.333332,73.000000 37.000000,73.000000 
M51.488518,27.002369 
	C39.183563,27.001835 26.878611,27.002577 14.573657,26.999577 
	C12.389810,26.999044 10.006021,26.682770 10.004490,29.996738 
	C10.001911,35.582336 10.003784,41.167934 10.003784,46.708206 
	C28.314724,46.708206 46.016563,46.708206 63.694138,46.708206 
	C63.694138,40.024033 63.694138,33.635628 63.694138,27.002369 
	C59.754177,27.002369 56.118122,27.002369 51.488518,27.002369 
z"/>
<path fill="#464646" opacity="1.000000" stroke="none" 
	d="
M51.985291,27.002369 
	C56.118122,27.002369 59.754177,27.002369 63.694138,27.002369 
	C63.694138,33.635628 63.694138,40.024033 63.694138,46.708206 
	C46.016563,46.708206 28.314724,46.708206 10.003784,46.708206 
	C10.003784,41.167934 10.001911,35.582336 10.004490,29.996738 
	C10.006021,26.682770 12.389810,26.999044 14.573657,26.999577 
	C26.878611,27.002577 39.183563,27.001835 51.985291,27.002369 
z"/>
</svg>