<svg xmlns="http://www.w3.org/2000/svg" width="72" height="72" viewBox="0 0 72 72" version="1.1"><path d="" stroke="none" fill="#901c44" fill-rule="evenodd"/><path d="M 15.437 18.304 C 15.145 19.065, 15.040 23.020, 15.203 27.094 L 15.500 34.500 18.796 34.817 C 21.344 35.062, 21.979 35.516, 21.594 36.817 C 21.319 37.743, 20.810 39.698, 20.461 41.162 C 20.113 42.625, 18.516 44.991, 16.914 46.419 C 15.311 47.847, 14 49.436, 14 49.951 C 14 51.068, 18.003 58, 18.648 58 C 22.051 58, 31.451 48.835, 32.725 44.275 C 33.151 42.749, 33.500 36.100, 33.500 29.500 L 33.500 17.500 24.734 17.211 C 17.992 16.988, 15.845 17.241, 15.437 18.304 M 38.422 18.344 C 38.138 19.083, 38.040 23.020, 38.203 27.094 C 38.494 34.346, 38.557 34.507, 41.250 34.816 C 43.156 35.036, 44 35.706, 44 37.001 C 44 40.318, 42.003 44.446, 39.334 46.645 C 36.401 49.061, 36.565 52.006, 39.858 56.073 C 41.719 58.371, 41.776 58.377, 44.621 56.567 C 53.815 50.717, 56.009 46.158, 56.736 31.395 C 57.149 23.011, 56.964 19.661, 56.025 18.530 C 54.318 16.473, 39.201 16.313, 38.422 18.344" stroke="none" fill="#8c1c44" fill-rule="evenodd"/></svg>