<?xml version="1.0" encoding="UTF-8" standalone="no"?>
<svg
   xmlns:dc="http://purl.org/dc/elements/1.1/"
   xmlns:cc="http://creativecommons.org/ns#"
   xmlns:rdf="http://www.w3.org/1999/02/22-rdf-syntax-ns#"
   xmlns:svg="http://www.w3.org/2000/svg"
   xmlns="http://www.w3.org/2000/svg"
   viewBox="0 0 239.03999 140.16"
   height="140.16"
   width="239.03999"
   xml:space="preserve"
   id="svg2"
   version="1.1"><metadata
     id="metadata8"><rdf:RDF><cc:Work
         rdf:about=""><dc:format>image/svg+xml</dc:format><dc:type
           rdf:resource="http://purl.org/dc/dcmitype/StillImage" /></cc:Work></rdf:RDF></metadata><defs
     id="defs6" /><g
     transform="matrix(1.3333333,0,0,-1.3333333,0,140.16)"
     id="g10"><g
       transform="scale(0.1)"
       id="g12"><path
         id="path14"
         style="fill:#8a0c3c;fill-opacity:1;fill-rule:nonzero;stroke:none"
         d="M 472.047,453.746 525.496,669.652 579.16,453.746 Z M 1500.39,265.355 c 0,0 -8.65,9.594 -22.97,25.071 -17.71,19.051 -16.77,39.258 -16.77,39.258 v 457.171 h -173.02 v -365.64 c -2.12,-34.637 -35.95,-43.414 -54.63,-42.809 -26.83,0.817 -42.44,15.953 -42.44,41.758 v 366.691 h -168.52 c 0,0 -70.352,-0.105 -118.735,-0.105 -92.235,0 -179.274,-14.187 -208.731,-90.949 l -17.367,67.984 c -4.258,13.504 -18.789,23.07 -33.246,23.07 H 342.785 c -4.39,0 -6.019,-1.417 -3.789,-4.492 0,0 8.176,-7.804 23.051,-24.832 20.601,-23.547 12.558,-54.976 12.558,-54.976 L 264.262,261.004 h 160.59 l 23.074,96.934 h 155.015 l 24.125,-96.934 c 0,0 197.723,0 211.438,0 86.797,0 157.383,8.844 192.176,63.004 26.02,-49.43 82.04,-72.606 180.9,-64.09 34.43,2.937 68.12,19.023 82.57,44.695 l 6.83,-21.281 c 5.68,-12.906 17.51,-22.367 34.32,-22.367 h 161.51 c 4.39,0 5.81,1.316 3.58,4.39" /><path
         id="path16"
         style="fill:#8a0c3c;fill-opacity:1;fill-rule:nonzero;stroke:none"
         d="m 1501.87,774.078 v -7.64 h 1.58 c 1.56,0 2.15,0.039 3.01,0.07 1,0.035 4.29,0.211 4.29,3.769 0,0.52 -0.03,2.317 -1.94,3.286 -0.96,0.484 -2.14,0.515 -4.84,0.515 z m -4.53,3.945 h 7.78 c 3.24,-0.039 5.42,-0.039 7.57,-1.765 1.52,-1.246 2.69,-3.184 2.69,-6.016 0,-4.668 -3.42,-6.293 -4.8,-6.703 l 5.42,-9.926 h -5.22 l -4.84,9.059 h -4.07 v -9.059 h -4.53 z m 8.08,9.547 c -11.86,0 -21.93,-9.32 -21.93,-21.984 0,-13.031 10.5,-21.988 21.93,-21.988 12.41,0 21.98,9.695 22.04,21.867 0.06,12.043 -9.26,22.105 -22.04,22.105 z m 0.06,-41.414 c -10.74,0 -19.44,8.516 -19.44,19.43 0,10.672 8.52,19.426 19.49,19.426 11.1,0 19.44,-8.871 19.37,-19.485 -0.06,-10.797 -8.45,-19.371 -19.42,-19.371" /><path
         id="path18"
         style="fill:#fbc622;fill-opacity:1;fill-rule:nonzero;stroke:none"
         d="m 690.266,675.098 c -0.95,-4.735 -2.102,-11.11 -2.786,-15.602 l -30.136,27.965 c -2.914,2.703 0.558,7.301 3.953,5.234 l 28.969,-17.597" /><path
         id="path20"
         style="fill:#fbc622;fill-opacity:1;fill-rule:nonzero;stroke:none"
         d="m 686.051,633.895 c -0.035,-6.481 0.281,-15.231 0.98,-21.848 l -58.347,38.016 c -3.266,2.125 -0.657,7.148 2.964,5.695 l 54.403,-21.863" /><path
         id="path22"
         style="fill:#fbc622;fill-opacity:1;fill-rule:nonzero;stroke:none"
         d="m 699.531,568.598 c -4.066,7.929 -7.75,18.465 -9.863,28.082 l -80.047,18.047 c -3.746,0.843 -5.484,-4.457 -1.965,-5.997 l 91.875,-40.132" /><path
         id="path24"
         style="fill:#fbc622;fill-opacity:1;fill-rule:nonzero;stroke:none"
         d="m 701.965,564.063 c 27.066,-49.458 84.168,-69.165 134.305,-86.559 48.828,-16.793 90.82,-31.328 90.82,-68.957 0,-10.035 -4.047,-18.918 -12.09,-26.227 -15.477,-14.082 -43.742,-20.929 -74.84,-17.972 -17.527,1.664 -35.949,10.746 -35.949,10.746 L 739.414,294.75 c -2.57,-3.191 -7.559,0.004 -5.734,3.676 l 44.394,89.281 c 0.528,1.059 -0.785,2.074 -1.676,1.297 l -78.8,-68.586 c -3.051,-2.656 -7.336,1.336 -4.903,4.57 l 61.078,81.145 c 0.668,0.887 -0.378,2.043 -1.328,1.465 l -91.269,-55.496 c -3.379,-2.055 -6.84,2.519 -3.938,5.211 l 76.227,70.746 c 0.762,0.707 -0.024,1.945 -0.988,1.554 l -100.829,-40.5 c -3.621,-1.453 -6.23,3.571 -2.964,5.696 l 88.742,57.781 c 0.875,0.566 0.304,1.926 -0.715,1.695 l -107.09,-24.14 c -3.746,-0.844 -5.484,4.457 -1.965,5.996 l 99.114,43.293 c 0.886,0.386 0.566,1.714 -0.399,1.652 L 596.164,474.02 c -3.82,-0.243 -4.695,5.253 -0.984,6.203 l 105.937,27.16 c 0.942,0.242 0.832,1.605 -0.133,1.695 l -109.929,10.246 c -3.782,0.352 -3.782,5.871 0,6.223 l 110.175,10.269 c 0.918,0.086 1.024,1.383 0.129,1.61 L 595.18,564.648 c -3.711,0.95 -2.836,6.446 0.984,6.204 l 105.801,-6.789" /><path
         id="path26"
         style="fill:#fbc622;fill-opacity:1;fill-rule:nonzero;stroke:none"
         d="m 1040.87,342.094 c 0,0 3.63,8.863 5.52,15.117 l 24.33,-32.332 c 2.43,-3.219 -1.84,-7.195 -4.88,-4.551 l -24.97,21.766" /><path
         id="path28"
         style="fill:#fbc622;fill-opacity:1;fill-rule:nonzero;stroke:none"
         d="m 1052.07,382.531 c 0,0 2.01,14.653 2.38,22.696 l 51.65,-47.914 c 2.9,-2.692 -0.56,-7.266 -3.94,-5.211 l -50.09,30.429" /><path
         id="path30"
         style="fill:#fbc622;fill-opacity:1;fill-rule:nonzero;stroke:none"
         d="m 1055.02,419.918 c 0,0 0.2,17.879 -1.82,27.945 l 81.33,-52.972 c 3.28,-2.137 0.66,-7.18 -2.98,-5.723 l -76.53,30.75" /><path
         id="path32"
         style="fill:#fbc622;fill-opacity:1;fill-rule:nonzero;stroke:none"
         d="m 1052.31,453.012 v 0 c 0,0 -4.13,45.41 -56.63,81.621 -27.438,18.922 -60.918,31.558 -90.352,42.781 -22.598,8.516 -43.883,16.688 -59.254,26.281 -17.16,10.879 -25.203,22.571 -25.203,36.762 0,10.406 3.442,19.055 10.301,25.781 11.824,11.586 33.348,16.789 62.437,16.555 31.219,-0.238 64.332,-14.297 64.332,-14.297 l 65.979,81.625 c 2.57,3.192 7.56,-0.004 5.74,-3.676 l -44.883,-90.254 c -0.422,-0.847 0.629,-1.656 1.34,-1.035 l 79.723,69.387 c 3.04,2.645 7.31,-1.332 4.88,-4.551 l -61.61,-81.851 c -0.57,-0.762 0.32,-1.754 1.14,-1.258 l 91.66,55.738 c 3.42,2.074 6.9,-2.543 3.98,-5.258 l -76.3,-70.816 c -0.71,-0.652 0.02,-1.793 0.91,-1.434 l 101.05,40.59 c 3.64,1.461 6.26,-3.586 2.98,-5.723 l -88.96,-57.917 c -0.81,-0.524 -0.28,-1.778 0.66,-1.567 l 107.48,24.231 c 3.75,0.843 5.49,-4.457 1.97,-5.997 l -99.12,-43.292 c -0.88,-0.387 -0.56,-1.715 0.4,-1.653 l 110.06,7.055 c 3.84,0.246 4.71,-5.274 0.99,-6.231 l -105.79,-27.121 c -0.94,-0.238 -0.84,-1.605 0.13,-1.695 l 109.78,-10.23 c 3.8,-0.356 3.8,-5.899 0,-6.254 l -109.78,-10.231 c -0.97,-0.09 -1.07,-1.453 -0.13,-1.695 l 105.79,-27.121 c 3.72,-0.957 2.85,-6.477 -0.99,-6.231 l -110.06,7.055 c -0.96,0.062 -1.28,-1.266 -0.4,-1.652 l 99.12,-43.293 c 3.52,-1.539 1.78,-6.84 -1.97,-5.996 l -101.4,22.867" /></g></g></svg>